<svg width="15" height="15" viewBox="0 0 15 15" fill="none" xmlns="http://www.w3.org/2000/svg">
<path d="M10.2842 9.67885C10.6893 9.46122 11.153 9.33733 11.6469 9.33733H11.6485C11.6988 9.33733 11.7222 9.27706 11.6854 9.24358C11.1718 8.78266 10.5851 8.4104 9.94933 8.14202C9.94263 8.13867 9.93594 8.137 9.92924 8.13365C10.9689 7.37863 11.6452 6.15151 11.6452 4.76702C11.6452 2.47349 9.79029 0.615234 7.50179 0.615234C5.21328 0.615234 3.36005 2.47349 3.36005 4.76702C3.36005 6.15151 4.03638 7.37863 5.07768 8.13365C5.07098 8.137 5.06429 8.13867 5.05759 8.14202C4.30926 8.45843 3.63795 8.91211 3.06038 9.49135C2.48615 10.0645 2.02898 10.744 1.7144 11.4919C1.40488 12.2243 1.23783 13.0089 1.22221 13.8038C1.22176 13.8217 1.2249 13.8395 1.23143 13.8561C1.23796 13.8728 1.24775 13.8879 1.26023 13.9007C1.27271 13.9135 1.28763 13.9237 1.3041 13.9306C1.32057 13.9376 1.33827 13.9411 1.35614 13.9411H2.35893C2.43092 13.9411 2.49118 13.8825 2.49286 13.8105C2.52634 12.5181 3.04364 11.3078 3.95938 10.3903C4.90525 9.44113 6.16417 8.91881 7.50346 8.91881C8.45268 8.91881 9.36339 9.18164 10.1486 9.67383C10.1687 9.6865 10.1919 9.69364 10.2157 9.69452C10.2395 9.6954 10.2631 9.69 10.2842 9.67885V9.67885ZM7.50346 7.64648C6.73672 7.64648 6.01518 7.34682 5.47109 6.80273C5.2034 6.53573 4.99117 6.2184 4.84665 5.86902C4.70213 5.51963 4.62816 5.14511 4.62902 4.76702C4.62902 3.9986 4.92868 3.27539 5.47109 2.73131C6.0135 2.18722 6.73505 1.88756 7.50346 1.88756C8.27188 1.88756 8.99174 2.18722 9.53583 2.73131C9.80352 2.99831 10.0157 3.31564 10.1603 3.66502C10.3048 4.01441 10.3788 4.38893 10.3779 4.76702C10.3779 5.53544 10.0782 6.25865 9.53583 6.80273C8.99174 7.34682 8.2702 7.64648 7.50346 7.64648ZM13.6608 11.6309H12.2546V10.2246C12.2546 10.1509 12.1943 10.0907 12.1206 10.0907H11.1831C11.1095 10.0907 11.0492 10.1509 11.0492 10.2246V11.6309H9.64297C9.56931 11.6309 9.50904 11.6911 9.50904 11.7648V12.7023C9.50904 12.7759 9.56931 12.8362 9.64297 12.8362H11.0492V14.2425C11.0492 14.3161 11.1095 14.3764 11.1831 14.3764H12.1206C12.1943 14.3764 12.2546 14.3161 12.2546 14.2425V12.8362H13.6608C13.7345 12.8362 13.7948 12.7759 13.7948 12.7023V11.7648C13.7948 11.6911 13.7345 11.6309 13.6608 11.6309Z" fill="black" fill-opacity="0.85"/>
</svg>
