<svg width="24" height="24" viewBox="0 0 24 24" fill="none" xmlns="http://www.w3.org/2000/svg">
<g clip-path="url(#clip0_532_4195)">
<path d="M5 18.6998C4.45 18.6998 3.979 18.5038 3.587 18.1118C3.19567 17.7205 3 17.2498 3 16.6998V2.6998C3 2.1498 3.19567 1.6788 3.587 1.2868C3.979 0.895472 4.45 0.699805 5 0.699805H13.925L11.925 2.6998H5V16.6998H19V9.7498L21 7.7498V16.6998C21 17.2498 20.8043 17.7205 20.413 18.1118C20.021 18.5038 19.55 18.6998 19 18.6998H5ZM16.175 1.2748L17.6 2.6748L11 9.2748V10.6998H12.4L19.025 4.0748L20.45 5.4748L13.25 12.6998H9V8.4498L16.175 1.2748ZM20.45 5.4748L16.175 1.2748L18.675 -1.2252C19.075 -1.6252 19.5543 -1.8252 20.113 -1.8252C20.671 -1.8252 21.1417 -1.6252 21.525 -1.2252L22.925 0.199805C23.3083 0.583138 23.5 1.0498 23.5 1.5998C23.5 2.1498 23.3083 2.61647 22.925 2.9998L20.45 5.4748Z" fill="#545454"/>
</g>
<defs>
<clipPath id="clip0_532_4195">
<rect width="24" height="24" fill="white"/>
</clipPath>
</defs>
</svg>
