<svg width="28" height="28" viewBox="0 0 28 28" fill="none" xmlns="http://www.w3.org/2000/svg">
<path d="M13.8031 18.6506C13.8265 18.6805 13.8564 18.7047 13.8905 18.7213C13.9246 18.7379 13.9621 18.7466 14 18.7466C14.0379 18.7466 14.0754 18.7379 14.1095 18.7213C14.1436 18.7047 14.1735 18.6805 14.1969 18.6506L17.6969 14.2225C17.825 14.06 17.7094 13.8194 17.5 13.8194H15.1844V3.24438C15.1844 3.10688 15.0719 2.99438 14.9344 2.99438H13.0594C12.9219 2.99438 12.8094 3.10688 12.8094 3.24438V13.8163H10.5C10.2906 13.8163 10.175 14.0569 10.3031 14.2194L13.8031 18.6506ZM25.4375 17.5569H23.5625C23.425 17.5569 23.3125 17.6694 23.3125 17.8069V22.6194H4.6875V17.8069C4.6875 17.6694 4.575 17.5569 4.4375 17.5569H2.5625C2.425 17.5569 2.3125 17.6694 2.3125 17.8069V23.9944C2.3125 24.5475 2.75937 24.9944 3.3125 24.9944H24.6875C25.2406 24.9944 25.6875 24.5475 25.6875 23.9944V17.8069C25.6875 17.6694 25.575 17.5569 25.4375 17.5569Z" fill="#6F887B"/>
</svg>
