<svg width="90" height="118" viewBox="0 0 90 118" fill="none" xmlns="http://www.w3.org/2000/svg">
<path d="M0.333008 117.833V39.6668H17.083V28.5002C17.083 20.7766 19.8058 14.1919 25.2514 8.74633C30.6933 3.30444 37.2761 0.583496 44.9997 0.583496C52.7233 0.583496 59.3079 3.30444 64.7535 8.74633C70.1954 14.1919 72.9163 20.7766 72.9163 28.5002V39.6668H89.6663V117.833H0.333008ZM28.2497 39.6668H61.7497V28.5002C61.7497 23.8474 60.1212 19.8925 56.8643 16.6356C53.6073 13.3786 49.6525 11.7502 44.9997 11.7502C40.3469 11.7502 36.392 13.3786 33.1351 16.6356C29.8781 19.8925 28.2497 23.8474 28.2497 28.5002V39.6668ZM11.4997 106.667H78.4997V50.8335H11.4997V106.667ZM44.9997 89.9168C48.0705 89.9168 50.7003 88.8244 52.8889 86.6394C55.0739 84.4507 56.1663 81.821 56.1663 78.7502C56.1663 75.6793 55.0739 73.0496 52.8889 70.8609C50.7003 68.676 48.0705 67.5835 44.9997 67.5835C41.9288 67.5835 39.301 68.676 37.116 70.8609C34.9273 73.0496 33.833 75.6793 33.833 78.7502C33.833 81.821 34.9273 84.4507 37.116 86.6394C39.301 88.8244 41.9288 89.9168 44.9997 89.9168Z" fill="black"/>
</svg>
