<svg width="24" height="27" viewBox="0 0 24 27" fill="none" xmlns="http://www.w3.org/2000/svg">
<path d="M17.6164 7.30734V5.8211C17.6164 5.68486 17.5015 5.57339 17.3611 5.57339H5.10619C4.96577 5.57339 4.85088 5.68486 4.85088 5.8211V7.30734C4.85088 7.44358 4.96577 7.55505 5.10619 7.55505H17.3611C17.5015 7.55505 17.6164 7.44358 17.6164 7.30734ZM5.10619 10.0321C4.96577 10.0321 4.85088 10.1436 4.85088 10.2798V11.7661C4.85088 11.9023 4.96577 12.0138 5.10619 12.0138H10.9783C11.1187 12.0138 11.2336 11.9023 11.2336 11.7661V10.2798C11.2336 10.1436 11.1187 10.0321 10.9783 10.0321H5.10619ZM9.70177 24.0275H2.29779V2.22936H20.1695V12.8807C20.1695 13.017 20.2844 13.1284 20.4248 13.1284H22.2119C22.3524 13.1284 22.4673 13.017 22.4673 12.8807V0.990826C22.4673 0.442775 22.0109 0 21.446 0H1.02124C0.456366 0 0 0.442775 0 0.990826V25.2661C0 25.8141 0.456366 26.2569 1.02124 26.2569H9.70177C9.84219 26.2569 9.95708 26.1454 9.95708 26.0092V24.2752C9.95708 24.139 9.84219 24.0275 9.70177 24.0275ZM23.9257 25.6221L20.9482 22.7333C21.6598 21.8198 22.0843 20.6804 22.0843 19.445C22.0843 16.4353 19.5695 13.9954 16.4675 13.9954C13.3655 13.9954 10.8507 16.4353 10.8507 19.445C10.8507 22.4546 13.3655 24.8945 16.4675 24.8945C17.61 24.8945 18.6695 24.5632 19.5567 23.9966L22.579 26.9288C22.63 26.9783 22.6938 27 22.7577 27C22.8215 27 22.8885 26.9752 22.9364 26.9288L23.9257 25.9689C23.9493 25.9462 23.9679 25.9192 23.9807 25.8894C23.9934 25.8597 24 25.8278 24 25.7955C24 25.7633 23.9934 25.7314 23.9807 25.7016C23.9679 25.6719 23.9493 25.6449 23.9257 25.6221ZM16.4675 22.9128C14.492 22.9128 12.8931 21.3616 12.8931 19.445C12.8931 17.5283 14.492 15.9771 16.4675 15.9771C18.4429 15.9771 20.0418 17.5283 20.0418 19.445C20.0418 21.3616 18.4429 22.9128 16.4675 22.9128Z" fill="#6F887B"/>
</svg>
