<svg width="14" height="14" viewBox="0 0 14 14" fill="none" xmlns="http://www.w3.org/2000/svg">
<path d="M5.24988 3.96564H6.40457V9.25157C6.40457 9.32032 6.46082 9.37657 6.52957 9.37657H7.46707C7.53582 9.37657 7.59207 9.32032 7.59207 9.25157V3.96564H8.74988C8.85457 3.96564 8.91238 3.84532 8.84832 3.76407L7.09832 1.54845C7.08662 1.53351 7.07168 1.52143 7.05463 1.51312C7.03757 1.50481 7.01885 1.50049 6.99988 1.50049C6.98091 1.50049 6.96218 1.50481 6.94513 1.51312C6.92807 1.52143 6.91313 1.53351 6.90144 1.54845L5.15144 3.76251C5.08738 3.84532 5.14519 3.96564 5.24988 3.96564ZM12.7186 8.78282H11.7811C11.7124 8.78282 11.6561 8.83907 11.6561 8.90782V11.3141H2.34363V8.90782C2.34363 8.83907 2.28738 8.78282 2.21863 8.78282H1.28113C1.21238 8.78282 1.15613 8.83907 1.15613 8.90782V12.0016C1.15613 12.2781 1.37957 12.5016 1.65613 12.5016H12.3436C12.6202 12.5016 12.8436 12.2781 12.8436 12.0016V8.90782C12.8436 8.83907 12.7874 8.78282 12.7186 8.78282Z" fill="black"/>
</svg>
