<svg width="260" height="260" viewBox="0 0 260 260" fill="none" xmlns="http://www.w3.org/2000/svg">
<path d="M130 0.666504C147.151 0.666504 163.599 7.47958 175.727 19.6069C187.854 31.7343 194.667 48.1825 194.667 65.3332C194.667 82.4838 187.854 98.9321 175.727 111.059C163.599 123.187 147.151 130 130 130C112.85 130 96.4014 123.187 84.2741 111.059C72.1467 98.9321 65.3337 82.4838 65.3337 65.3332C65.3337 48.1825 72.1467 31.7343 84.2741 19.6069C96.4014 7.47958 112.85 0.666504 130 0.666504ZM130 162.333C201.457 162.333 259.334 191.271 259.334 227V259.333H0.666992V227C0.666992 191.271 58.5437 162.333 130 162.333Z" fill="black"/>
</svg>
